<mxfile host="app.diagrams.net" modified="2021-02-25T08:10:20.015Z" agent="5.0 (Windows NT 10.0; Win64; x64) AppleWebKit/537.36 (KHTML, like Gecko) Chrome/88.0.4324.182 Safari/537.36" etag="BB_Ya_UjLR1v2-u-xWv-" version="14.4.3" type="github">
  <diagram id="5xZiq6wW_Nva5TvQ9aZb" name="Page-1">
    <mxGraphModel dx="782" dy="437" grid="1" gridSize="10" guides="1" tooltips="1" connect="1" arrows="1" fold="1" page="1" pageScale="1" pageWidth="827" pageHeight="1169" math="0" shadow="0">
      <root>
        <mxCell id="0" />
        <mxCell id="1" parent="0" />
        <mxCell id="pNSAxtEUwlwTx5AHmhqM-16" value="" style="rounded=0;whiteSpace=wrap;html=1;" vertex="1" parent="1">
          <mxGeometry x="203" y="490" width="467" height="280" as="geometry" />
        </mxCell>
        <mxCell id="KXOQ51XhTFSmpcEwheXB-17" value="" style="rounded=1;whiteSpace=wrap;html=1;" parent="1" vertex="1">
          <mxGeometry x="200" y="310" width="560" height="90" as="geometry" />
        </mxCell>
        <mxCell id="KXOQ51XhTFSmpcEwheXB-2" value="路由入口" style="ellipse;whiteSpace=wrap;html=1;aspect=fixed;" parent="1" vertex="1">
          <mxGeometry x="445" y="20" width="70" height="70" as="geometry" />
        </mxCell>
        <mxCell id="KXOQ51XhTFSmpcEwheXB-3" value="用户&lt;br&gt;模块" style="whiteSpace=wrap;html=1;aspect=fixed;" parent="1" vertex="1">
          <mxGeometry x="200" y="190" width="80" height="80" as="geometry" />
        </mxCell>
        <mxCell id="KXOQ51XhTFSmpcEwheXB-4" value="渠道&lt;br&gt;模块" style="whiteSpace=wrap;html=1;aspect=fixed;" parent="1" vertex="1">
          <mxGeometry x="320" y="190" width="80" height="80" as="geometry" />
        </mxCell>
        <mxCell id="KXOQ51XhTFSmpcEwheXB-5" value="优惠券组&lt;br&gt;模块" style="whiteSpace=wrap;html=1;aspect=fixed;" parent="1" vertex="1">
          <mxGeometry x="440" y="190" width="80" height="80" as="geometry" />
        </mxCell>
        <mxCell id="KXOQ51XhTFSmpcEwheXB-6" value="优惠券&lt;br&gt;模块" style="whiteSpace=wrap;html=1;aspect=fixed;" parent="1" vertex="1">
          <mxGeometry x="560" y="190" width="80" height="80" as="geometry" />
        </mxCell>
        <mxCell id="KXOQ51XhTFSmpcEwheXB-7" value="..." style="whiteSpace=wrap;html=1;aspect=fixed;" parent="1" vertex="1">
          <mxGeometry x="680" y="190" width="80" height="80" as="geometry" />
        </mxCell>
        <mxCell id="KXOQ51XhTFSmpcEwheXB-10" value="" style="endArrow=none;html=1;" parent="1" edge="1">
          <mxGeometry width="50" height="50" relative="1" as="geometry">
            <mxPoint x="480" y="120" as="sourcePoint" />
            <mxPoint x="480" y="90" as="targetPoint" />
          </mxGeometry>
        </mxCell>
        <mxCell id="KXOQ51XhTFSmpcEwheXB-11" value="" style="endArrow=none;html=1;" parent="1" edge="1">
          <mxGeometry width="50" height="50" relative="1" as="geometry">
            <mxPoint x="240" y="120" as="sourcePoint" />
            <mxPoint x="720" y="120" as="targetPoint" />
          </mxGeometry>
        </mxCell>
        <mxCell id="KXOQ51XhTFSmpcEwheXB-12" value="" style="endArrow=classic;html=1;" parent="1" edge="1">
          <mxGeometry width="50" height="50" relative="1" as="geometry">
            <mxPoint x="362" y="120" as="sourcePoint" />
            <mxPoint x="362" y="190" as="targetPoint" />
          </mxGeometry>
        </mxCell>
        <mxCell id="KXOQ51XhTFSmpcEwheXB-13" value="" style="endArrow=classic;html=1;" parent="1" edge="1">
          <mxGeometry width="50" height="50" relative="1" as="geometry">
            <mxPoint x="239.5" y="120" as="sourcePoint" />
            <mxPoint x="239.5" y="190" as="targetPoint" />
          </mxGeometry>
        </mxCell>
        <mxCell id="KXOQ51XhTFSmpcEwheXB-14" value="" style="endArrow=classic;html=1;" parent="1" edge="1">
          <mxGeometry width="50" height="50" relative="1" as="geometry">
            <mxPoint x="480" y="120" as="sourcePoint" />
            <mxPoint x="480" y="190" as="targetPoint" />
          </mxGeometry>
        </mxCell>
        <mxCell id="KXOQ51XhTFSmpcEwheXB-15" value="" style="endArrow=classic;html=1;" parent="1" edge="1">
          <mxGeometry width="50" height="50" relative="1" as="geometry">
            <mxPoint x="599.5" y="120" as="sourcePoint" />
            <mxPoint x="599.5" y="190" as="targetPoint" />
          </mxGeometry>
        </mxCell>
        <mxCell id="KXOQ51XhTFSmpcEwheXB-16" value="" style="endArrow=classic;html=1;" parent="1" edge="1">
          <mxGeometry width="50" height="50" relative="1" as="geometry">
            <mxPoint x="719.5" y="120" as="sourcePoint" />
            <mxPoint x="719.5" y="190" as="targetPoint" />
          </mxGeometry>
        </mxCell>
        <mxCell id="KXOQ51XhTFSmpcEwheXB-20" value="HttpClient" style="shape=document;whiteSpace=wrap;html=1;boundedLbl=1;" parent="1" vertex="1">
          <mxGeometry x="390" y="332.01" width="60" height="32" as="geometry" />
        </mxCell>
        <mxCell id="KXOQ51XhTFSmpcEwheXB-25" value="Store" style="shape=document;whiteSpace=wrap;html=1;boundedLbl=1;size=0.3333333333333333;" parent="1" vertex="1">
          <mxGeometry x="530" y="331.25" width="56" height="38.75" as="geometry" />
        </mxCell>
        <mxCell id="KXOQ51XhTFSmpcEwheXB-28" value="Routing" style="shape=document;whiteSpace=wrap;html=1;boundedLbl=1;" parent="1" vertex="1">
          <mxGeometry x="331" y="332.25" width="49" height="37.75" as="geometry" />
        </mxCell>
        <mxCell id="KXOQ51XhTFSmpcEwheXB-29" value="" style="endArrow=classic;html=1;" parent="1" edge="1">
          <mxGeometry width="50" height="50" relative="1" as="geometry">
            <mxPoint x="365" y="54.5" as="sourcePoint" />
            <mxPoint x="445" y="54.5" as="targetPoint" />
            <Array as="points">
              <mxPoint x="390" y="55" />
            </Array>
          </mxGeometry>
        </mxCell>
        <mxCell id="KXOQ51XhTFSmpcEwheXB-30" value="Utils" style="shape=document;whiteSpace=wrap;html=1;boundedLbl=1;size=0.2;" parent="1" vertex="1">
          <mxGeometry x="592" y="330" width="50" height="31.25" as="geometry" />
        </mxCell>
        <mxCell id="KXOQ51XhTFSmpcEwheXB-34" value="UI Kits" style="shape=document;whiteSpace=wrap;html=1;boundedLbl=1;size=0.2;" parent="1" vertex="1">
          <mxGeometry x="215" y="333.01" width="50" height="32.5" as="geometry" />
        </mxCell>
        <mxCell id="KXOQ51XhTFSmpcEwheXB-36" value="" style="endArrow=classic;startArrow=classic;html=1;exitX=0.5;exitY=1;exitDx=0;exitDy=0;entryX=0.07;entryY=0.022;entryDx=0;entryDy=0;entryPerimeter=0;" parent="1" source="KXOQ51XhTFSmpcEwheXB-3" target="KXOQ51XhTFSmpcEwheXB-17" edge="1">
          <mxGeometry width="50" height="50" relative="1" as="geometry">
            <mxPoint x="550" y="270" as="sourcePoint" />
            <mxPoint x="400" y="280" as="targetPoint" />
          </mxGeometry>
        </mxCell>
        <mxCell id="KXOQ51XhTFSmpcEwheXB-37" value="" style="endArrow=classic;startArrow=classic;html=1;exitX=0.5;exitY=1;exitDx=0;exitDy=0;" parent="1" source="KXOQ51XhTFSmpcEwheXB-4" edge="1">
          <mxGeometry width="50" height="50" relative="1" as="geometry">
            <mxPoint x="250" y="280" as="sourcePoint" />
            <mxPoint x="360" y="310" as="targetPoint" />
          </mxGeometry>
        </mxCell>
        <mxCell id="KXOQ51XhTFSmpcEwheXB-38" value="" style="endArrow=classic;startArrow=classic;html=1;exitX=0.5;exitY=1;exitDx=0;exitDy=0;" parent="1" edge="1">
          <mxGeometry width="50" height="50" relative="1" as="geometry">
            <mxPoint x="479.5" y="270" as="sourcePoint" />
            <mxPoint x="479.5" y="310" as="targetPoint" />
          </mxGeometry>
        </mxCell>
        <mxCell id="KXOQ51XhTFSmpcEwheXB-39" value="" style="endArrow=classic;startArrow=classic;html=1;exitX=0.5;exitY=1;exitDx=0;exitDy=0;" parent="1" edge="1">
          <mxGeometry width="50" height="50" relative="1" as="geometry">
            <mxPoint x="599.5" y="270" as="sourcePoint" />
            <mxPoint x="599.5" y="310" as="targetPoint" />
          </mxGeometry>
        </mxCell>
        <mxCell id="KXOQ51XhTFSmpcEwheXB-40" value="" style="endArrow=classic;startArrow=classic;html=1;exitX=0.5;exitY=1;exitDx=0;exitDy=0;" parent="1" source="KXOQ51XhTFSmpcEwheXB-7" edge="1">
          <mxGeometry width="50" height="50" relative="1" as="geometry">
            <mxPoint x="390" y="300" as="sourcePoint" />
            <mxPoint x="720" y="308" as="targetPoint" />
          </mxGeometry>
        </mxCell>
        <mxCell id="pNSAxtEUwlwTx5AHmhqM-1" value="i18n" style="shape=document;whiteSpace=wrap;html=1;boundedLbl=1;" vertex="1" parent="1">
          <mxGeometry x="651" y="330" width="50" height="32" as="geometry" />
        </mxCell>
        <mxCell id="pNSAxtEUwlwTx5AHmhqM-2" value="Testing" style="shape=document;whiteSpace=wrap;html=1;boundedLbl=1;" vertex="1" parent="1">
          <mxGeometry x="710" y="329.69" width="46.5" height="32" as="geometry" />
        </mxCell>
        <mxCell id="pNSAxtEUwlwTx5AHmhqM-3" value="Layout" style="shape=document;whiteSpace=wrap;html=1;boundedLbl=1;" vertex="1" parent="1">
          <mxGeometry x="272" y="333.38" width="48" height="36.62" as="geometry" />
        </mxCell>
        <mxCell id="pNSAxtEUwlwTx5AHmhqM-6" value="业务模块" style="text;html=1;strokeColor=none;fillColor=none;align=center;verticalAlign=middle;whiteSpace=wrap;rounded=0;" vertex="1" parent="1">
          <mxGeometry x="770" y="220" width="50" height="20" as="geometry" />
        </mxCell>
        <mxCell id="pNSAxtEUwlwTx5AHmhqM-7" value="内核模块" style="text;html=1;strokeColor=none;fillColor=none;align=center;verticalAlign=middle;whiteSpace=wrap;rounded=0;" vertex="1" parent="1">
          <mxGeometry x="767" y="346" width="50" height="20" as="geometry" />
        </mxCell>
        <mxCell id="pNSAxtEUwlwTx5AHmhqM-9" value="业务模块A&amp;nbsp; &amp;nbsp;内部切面" style="text;html=1;strokeColor=none;fillColor=none;align=center;verticalAlign=middle;whiteSpace=wrap;rounded=0;" vertex="1" parent="1">
          <mxGeometry x="367" y="460" width="135.75" height="20" as="geometry" />
        </mxCell>
        <mxCell id="pNSAxtEUwlwTx5AHmhqM-12" value="Type Define" style="shape=document;whiteSpace=wrap;html=1;boundedLbl=1;" vertex="1" parent="1">
          <mxGeometry x="460" y="330.69" width="60" height="39.31" as="geometry" />
        </mxCell>
        <mxCell id="pNSAxtEUwlwTx5AHmhqM-27" value="" style="endArrow=classic;html=1;entryX=0;entryY=0.5;entryDx=0;entryDy=0;entryPerimeter=0;" edge="1" parent="1">
          <mxGeometry width="50" height="50" relative="1" as="geometry">
            <mxPoint x="180" y="563" as="sourcePoint" />
            <mxPoint x="240" y="562.5" as="targetPoint" />
          </mxGeometry>
        </mxCell>
        <mxCell id="pNSAxtEUwlwTx5AHmhqM-35" value="" style="shape=actor;whiteSpace=wrap;html=1;" vertex="1" parent="1">
          <mxGeometry x="140" y="542.5" width="40" height="60" as="geometry" />
        </mxCell>
        <mxCell id="pNSAxtEUwlwTx5AHmhqM-36" value="" style="shape=actor;whiteSpace=wrap;html=1;" vertex="1" parent="1">
          <mxGeometry x="320" y="25" width="40" height="60" as="geometry" />
        </mxCell>
        <mxCell id="pNSAxtEUwlwTx5AHmhqM-68" value="" style="edgeStyle=orthogonalEdgeStyle;rounded=0;orthogonalLoop=1;jettySize=auto;html=1;" edge="1" parent="1">
          <mxGeometry relative="1" as="geometry">
            <mxPoint x="572" y="622.5" as="sourcePoint" />
            <mxPoint x="572" y="587.9954397394135" as="targetPoint" />
          </mxGeometry>
        </mxCell>
        <mxCell id="pNSAxtEUwlwTx5AHmhqM-75" value="" style="edgeStyle=orthogonalEdgeStyle;rounded=0;orthogonalLoop=1;jettySize=auto;html=1;" edge="1" parent="1">
          <mxGeometry relative="1" as="geometry">
            <mxPoint x="544" y="643" as="sourcePoint" />
            <mxPoint x="484" y="643" as="targetPoint" />
          </mxGeometry>
        </mxCell>
        <mxCell id="pNSAxtEUwlwTx5AHmhqM-40" value="http请求" style="strokeWidth=2;html=1;shape=mxgraph.flowchart.delay;whiteSpace=wrap;" vertex="1" parent="1">
          <mxGeometry x="544" y="627.5" width="80" height="55" as="geometry" />
        </mxCell>
        <mxCell id="pNSAxtEUwlwTx5AHmhqM-41" value="路由配置" style="strokeWidth=2;html=1;shape=mxgraph.flowchart.start_1;whiteSpace=wrap;" vertex="1" parent="1">
          <mxGeometry x="240" y="531.25" width="85" height="58.75" as="geometry" />
        </mxCell>
        <mxCell id="pNSAxtEUwlwTx5AHmhqM-42" value="实体类型&lt;br&gt;定义" style="strokeWidth=2;html=1;shape=mxgraph.flowchart.merge_or_storage;whiteSpace=wrap;" vertex="1" parent="1">
          <mxGeometry x="367" y="700" width="93.5" height="55" as="geometry" />
        </mxCell>
        <mxCell id="pNSAxtEUwlwTx5AHmhqM-71" value="" style="edgeStyle=orthogonalEdgeStyle;rounded=0;orthogonalLoop=1;jettySize=auto;html=1;" edge="1" parent="1" source="pNSAxtEUwlwTx5AHmhqM-43" target="pNSAxtEUwlwTx5AHmhqM-50">
          <mxGeometry relative="1" as="geometry" />
        </mxCell>
        <mxCell id="pNSAxtEUwlwTx5AHmhqM-43" value="Store" style="strokeWidth=2;html=1;shape=mxgraph.flowchart.stored_data;whiteSpace=wrap;" vertex="1" parent="1">
          <mxGeometry x="400" y="533" width="80" height="50" as="geometry" />
        </mxCell>
        <mxCell id="pNSAxtEUwlwTx5AHmhqM-44" style="edgeStyle=orthogonalEdgeStyle;rounded=0;orthogonalLoop=1;jettySize=auto;html=1;exitX=0.5;exitY=1;exitDx=0;exitDy=0;exitPerimeter=0;" edge="1" parent="1">
          <mxGeometry relative="1" as="geometry">
            <mxPoint x="560" y="640" as="sourcePoint" />
            <mxPoint x="560" y="640" as="targetPoint" />
          </mxGeometry>
        </mxCell>
        <mxCell id="pNSAxtEUwlwTx5AHmhqM-45" value="页面" style="strokeWidth=2;html=1;shape=mxgraph.flowchart.terminator;whiteSpace=wrap;" vertex="1" parent="1">
          <mxGeometry x="232.5" y="630" width="100" height="60" as="geometry" />
        </mxCell>
        <mxCell id="pNSAxtEUwlwTx5AHmhqM-76" value="" style="edgeStyle=orthogonalEdgeStyle;rounded=0;orthogonalLoop=1;jettySize=auto;html=1;" edge="1" parent="1" source="pNSAxtEUwlwTx5AHmhqM-50" target="pNSAxtEUwlwTx5AHmhqM-40">
          <mxGeometry relative="1" as="geometry" />
        </mxCell>
        <mxCell id="pNSAxtEUwlwTx5AHmhqM-50" value="组件" style="strokeWidth=2;html=1;shape=mxgraph.flowchart.multi-document;whiteSpace=wrap;" vertex="1" parent="1">
          <mxGeometry x="396" y="625" width="88" height="60" as="geometry" />
        </mxCell>
        <mxCell id="pNSAxtEUwlwTx5AHmhqM-54" value="" style="endArrow=classic;html=1;exitX=0.5;exitY=1;exitDx=0;exitDy=0;exitPerimeter=0;" edge="1" parent="1" source="pNSAxtEUwlwTx5AHmhqM-41">
          <mxGeometry width="50" height="50" relative="1" as="geometry">
            <mxPoint x="500" y="670" as="sourcePoint" />
            <mxPoint x="283" y="630" as="targetPoint" />
          </mxGeometry>
        </mxCell>
        <mxCell id="pNSAxtEUwlwTx5AHmhqM-55" value="" style="endArrow=classic;html=1;entryX=1;entryY=0.5;entryDx=0;entryDy=0;entryPerimeter=0;" edge="1" parent="1" target="pNSAxtEUwlwTx5AHmhqM-45">
          <mxGeometry width="50" height="50" relative="1" as="geometry">
            <mxPoint x="389" y="660" as="sourcePoint" />
            <mxPoint x="560" y="620" as="targetPoint" />
          </mxGeometry>
        </mxCell>
        <mxCell id="pNSAxtEUwlwTx5AHmhqM-62" value="" style="edgeStyle=orthogonalEdgeStyle;rounded=0;orthogonalLoop=1;jettySize=auto;html=1;entryX=0.93;entryY=0.5;entryDx=0;entryDy=0;entryPerimeter=0;" edge="1" parent="1" source="pNSAxtEUwlwTx5AHmhqM-60" target="pNSAxtEUwlwTx5AHmhqM-43">
          <mxGeometry relative="1" as="geometry" />
        </mxCell>
        <mxCell id="pNSAxtEUwlwTx5AHmhqM-67" value="" style="edgeStyle=orthogonalEdgeStyle;rounded=0;orthogonalLoop=1;jettySize=auto;html=1;" edge="1" parent="1">
          <mxGeometry relative="1" as="geometry">
            <mxPoint x="594" y="589.9954397394135" as="sourcePoint" />
            <mxPoint x="594" y="624.5" as="targetPoint" />
          </mxGeometry>
        </mxCell>
        <mxCell id="pNSAxtEUwlwTx5AHmhqM-60" value="actions" style="rhombus;whiteSpace=wrap;html=1;" vertex="1" parent="1">
          <mxGeometry x="545.62" y="523" width="76.75" height="70" as="geometry" />
        </mxCell>
        <mxCell id="pNSAxtEUwlwTx5AHmhqM-74" value="" style="endArrow=classic;html=1;" edge="1" parent="1">
          <mxGeometry width="50" height="50" relative="1" as="geometry">
            <mxPoint x="474" y="620" as="sourcePoint" />
            <mxPoint x="559" y="570" as="targetPoint" />
          </mxGeometry>
        </mxCell>
        <mxCell id="pNSAxtEUwlwTx5AHmhqM-80" value="业务模块B..." style="rounded=0;whiteSpace=wrap;html=1;" vertex="1" parent="1">
          <mxGeometry x="690" y="490" width="120" height="280" as="geometry" />
        </mxCell>
      </root>
    </mxGraphModel>
  </diagram>
</mxfile>
